<svg width="24" height="22" viewBox="0 0 24 22" fill="none" xmlns="http://www.w3.org/2000/svg">
<path d="M23.1979 3.91901C23.0604 3.91148 22.9309 3.91901 22.7934 3.91901C17.2286 3.93407 11.6637 3.94914 6.09885 3.9642C5.2253 3.9642 5.2253 3.9642 5.0878 3.15822C4.90176 2.0208 4.26277 1.19222 3.11421 0.732737C2.37007 0.438967 1.5774 0.506761 0.80091 0.506761C0.315602 0.506761 0.00824044 0.762868 0.000151976 1.13196C-0.00793649 1.50106 0.307514 1.7647 0.784733 1.77976C1.10827 1.79483 1.43181 1.77976 1.75535 1.77976C2.87156 1.7873 3.5429 2.31457 3.72085 3.34653C4.26277 6.48008 4.76426 9.61362 5.33854 12.7396C5.5084 13.6435 5.46795 14.4947 5.14442 15.3534C4.96647 15.828 4.84514 16.3176 4.71573 16.7997C4.60249 17.2215 4.79661 17.5153 5.24957 17.6132C5.39516 17.6433 5.54075 17.6433 5.69443 17.6433C5.82385 17.6433 5.95326 17.6433 6.09077 17.6433C5.37898 17.9898 4.89367 18.6828 4.90985 19.4813C4.92603 20.6112 5.90473 21.5 7.12609 21.5C8.35554 21.5 9.31806 20.6112 9.31806 19.4662C9.32615 18.6678 8.84893 17.9823 8.15332 17.6433C11.6152 17.6433 15.069 17.6433 18.5308 17.6433C17.819 17.9898 17.3337 18.6828 17.3418 19.4813C17.358 20.6112 18.3367 21.5 19.5581 21.5C20.7875 21.5 21.75 20.6112 21.75 19.4662C21.7581 18.6678 21.2809 17.9823 20.5772 17.6358C20.6985 17.6283 20.8118 17.6207 20.925 17.5981C21.2566 17.5228 21.4184 17.2818 21.4103 16.9805C21.4022 16.6641 21.2162 16.4306 20.8522 16.3854C20.6824 16.3628 20.5044 16.3628 20.3265 16.3628C15.8293 16.3628 11.324 16.3628 6.82682 16.3628C6.65696 16.3628 6.4871 16.3628 6.26062 16.3628C6.39813 15.8581 6.54372 15.4137 6.64887 14.9617C6.70549 14.7207 6.82682 14.6454 7.08565 14.6378C8.84893 14.5776 10.6122 14.5098 12.3755 14.442C15.1337 14.3365 17.8918 14.2386 20.6581 14.1332C21.1677 14.1106 21.3537 13.975 21.4831 13.5155C21.6449 12.9731 21.7986 12.4233 21.9522 11.8809C22.6155 9.54583 23.2868 7.20321 23.9501 4.86811C24.12 4.28057 23.853 3.94914 23.1979 3.91901Z" fill="url(#paint0_linear)"/>
<defs>
<linearGradient id="paint0_linear" x1="12" y1="0.5" x2="12" y2="21.5" gradientUnits="userSpaceOnUse">
<stop stop-color="#F65963"/>
<stop offset="1" stop-color="#F7805F"/>
</linearGradient>
</defs>
</svg>
