<svg width="20" height="20" viewBox="0 0 20 20" fill="none" xmlns="http://www.w3.org/2000/svg">
<path fill-rule="evenodd" clip-rule="evenodd" d="M0 10C0 15.5228 4.47715 20 10 20C15.5228 20 20 15.5228 20 10C20 4.47715 15.5228 0 10 0C4.47715 0 0 4.47715 0 10ZM18.1819 10.0001C18.1819 14.5187 14.5187 18.1819 10.0001 18.1819C5.48136 18.1819 1.81824 14.5187 1.81824 10.0001C1.81824 5.48136 5.48136 1.81824 10.0001 1.81824C14.5187 1.81824 18.1819 5.48136 18.1819 10.0001ZM10.9123 11.8167H11.8208V13.6349H8.18441V11.8167H9.0935V9.99852H8.18441V8.18034H10.9123V11.8167ZM10.9098 6.36218C10.9098 6.86425 10.5026 7.27127 10.0004 7.27127C9.49813 7.27127 9.09098 6.86425 9.09098 6.36218C9.09098 5.8601 9.49813 5.45308 10.0004 5.45308C10.5026 5.45308 10.9098 5.8601 10.9098 6.36218Z" fill="#F7805F"/>
</svg>
