<svg viewBox="0 -31 512 512" xmlns="http://www.w3.org/2000/svg"><path d="M15 30h92a15 15 0 0115 15c0 1.3-1.9-16.3 28.6 258.1A45 45 0 00167 390h17.6a44.9 44.9 0 0042.4 60 45 45 0 0042.4-60h95.2a45 45 0 1042.4-30H167a15 15 0 010-30h274.6c22 0 40.7-15.8 44.4-37.6l25.8-155A15 15 0 00497 120h-45V45a15 15 0 00-15-15H317a15 15 0 00-15 15v15h-75a15 15 0 00-15 15v45h-51.6L152 44a45 45 0 00-45-44H15a15 15 0 100 30zm227 375a15 15 0 11-30 0 15 15 0 0130 0zm165 15a15 15 0 110-30 15 15 0 010 30zM332 60h90v60h-90zm-90 30h60v30h-60zm237.3 60l-23 137.5a15 15 0 01-14.7 12.5H180.4l-16.6-150zm0 0" fill="#fff"/><path d="M227 270a15 15 0 0015-15v-60a15 15 0 10-30 0v60a15 15 0 0015 15zm0 0M317 270a15 15 0 0015-15v-60a15 15 0 10-30 0v60a15 15 0 0015 15zm0 0M407 270a15 15 0 0015-15v-60a15 15 0 10-30 0v60a15 15 0 0015 15zm0 0" fill="#fff"/></svg>